ffmpeg version 2.8.11-0ubuntu0.16.04.1 Copyright (c) 2000-2017 the FFmpeg developers
  built with gcc 5.4.0 (Ubuntu 5.4.0-6ubuntu1~16.04.4) 20160609
  configuration: --prefix=/usr --extra-version=0ubuntu0.16.04.1 --build-suffix=-ffmpeg --toolchain=hardened --libdir=/usr/lib/x86_64-linux-gnu --incdir=/usr/include/x86_64-linux-gnu --cc=cc --cxx=g++ --enable-gpl --enable-shared --disable-stripping --disable-decoder=libopenjpeg --disable-decoder=libschroedinger --enable-avresample --enable-avisynth --enable-gnutls --enable-ladspa --enable-libass --enable-libbluray --enable-libbs2b --enable-libcaca --enable-libcdio --enable-libflite --enable-libfontconfig --enable-libfreetype --enable-libfribidi --enable-libgme --enable-libgsm --enable-libmodplug --enable-libmp3lame --enable-libopenjpeg --enable-libopus --enable-libpulse --enable-librtmp --enable-libschroedinger --enable-libshine --enable-libsnappy --enable-libsoxr --enable-libspeex --enable-libssh --enable-libtheora --enable-libtwolame --enable-libvorbis --enable-libvpx --enable-libwavpack --enable-libwebp --enable-libx265 --enable-libxvid --enable-libzvbi --enable-openal --enable-opengl --enable-x11grab --enable-libdc1394 --enable-libiec61883 --enable-libzmq --enable-frei0r --enable-libx264 --enable-libopencv
  libavutil      54. 31.100 / 54. 31.100
  libavcodec     56. 60.100 / 56. 60.100
  libavformat    56. 40.101 / 56. 40.101
  libavdevice    56.  4.100 / 56.  4.100
  libavfilter     5. 40.101 /  5. 40.101
  libavresample   2.  1.  0 /  2.  1.  0
  libswscale      3.  1.101 /  3.  1.101
  libswresample   1.  2.101 /  1.  2.101
  libpostproc    53.  3.100 / 53.  3.100
[mp3 @ 0xc368c0] Unknown attached picture mimetype: ('image/png', None), skipping.
[mp3 @ 0xc368c0] Skipping 0 bytes of junk at 17522.
Input #0, mp3, from '36-honore-de-balzac-male-niedole-pozycia-malzenskiego-rozdzial-33.mp3':
  Metadata:
    title           : 36. Honore Balzac, "Małe niedole pożycia małżeńskiego", rozdział 33_01.
    artist          : Wiktor Korzeniewski
    album           : Wolne Lektury
    genre           : 0
    encoder         : Lavf53.21.1
    URL             : http://wolnelektury.pl/katalog/lektura/balzac-komedia-luǳka-male-niedole-pozycia-malzenskiego
    date            : 2014
    CONDUCTOR       : Adam Bień
    PROJECT         : Słuchamy Polski finansowanego przez Ministerstwo Kultury i Dziedzictwa Narodowego
    TCD             : 75617262132
    performer       : Adam Bień
    album_artist    : Fundacja Nowoczesna Polska
    copyright       : 2014 Fundacja Nowoczesna Polska. Licensed to the public under http://creativecommons.org/licenses/by-sa/3.0/deed.pl verify at http://wolnelektury.pl/katalog/lektura/balzac-komedia-ludzka-male-niedole-pozycia-malzenskiego
    encoded_by      : Adam Bień
    publisher       : Fundacja Nowoczesna Polska
  Duration: 00:05:54.35, start: 0.000000, bitrate: 64 kb/s
    Stream #0:0: Audio: mp3, 44100 Hz, mono, s16p, 64 kb/s
Output #0, null, to 'pipe:':
  Metadata:
    title           : 36. Honore Balzac, "Małe niedole pożycia małżeńskiego", rozdział 33_01.
    artist          : Wiktor Korzeniewski
    album           : Wolne Lektury
    genre           : 0
    URL             : http://wolnelektury.pl/katalog/lektura/balzac-komedia-luǳka-male-niedole-pozycia-malzenskiego
    date            : 2014
    CONDUCTOR       : Adam Bień
    PROJECT         : Słuchamy Polski finansowanego przez Ministerstwo Kultury i Dziedzictwa Narodowego
    TCD             : 75617262132
    performer       : Adam Bień
    album_artist    : Fundacja Nowoczesna Polska
    copyright       : 2014 Fundacja Nowoczesna Polska. Licensed to the public under http://creativecommons.org/licenses/by-sa/3.0/deed.pl verify at http://wolnelektury.pl/katalog/lektura/balzac-komedia-ludzka-male-niedole-pozycia-malzenskiego
    encoded_by      : Adam Bień
    publisher       : Fundacja Nowoczesna Polska
    encoder         : Lavf56.40.101
    Stream #0:0: Audio: pcm_s16le, 44100 Hz, mono, s16, 705 kb/s
    Metadata:
      encoder         : Lavc56.60.100 pcm_s16le
Stream mapping:
  Stream #0:0 -> #0:0 (mp3 (native) -> pcm_s16le (native))
Press [q] to stop, [?] for help
[silencedetect @ 0xc49c20] silence_start: -0.00367347
[silencedetect @ 0xc49c20] silence_end: 0.679184 | silence_duration: 0.682857
[silencedetect @ 0xc49c20] silence_start: 2.32122
[silencedetect @ 0xc49c20] silence_end: 2.97796 | silence_duration: 0.656735
[silencedetect @ 0xc49c20] silence_start: 4.72449
[silencedetect @ 0xc49c20] silence_end: 5.82531 | silence_duration: 1.10082
[silencedetect @ 0xc49c20] silence_start: 9.06082
[silencedetect @ 0xc49c20] silence_end: 9.95265 | silence_duration: 0.891837
[silencedetect @ 0xc49c20] silence_start: 14.9906
[silencedetect @ 0xc49c20] silence_end: 15.8302 | silence_duration: 0.839592
[silencedetect @ 0xc49c20] silence_start: 24.2118
[silencedetect @ 0xc49c20] silence_end: 24.7641 | silence_duration: 0.552245
[silencedetect @ 0xc49c20] silence_start: 54.0698
[silencedetect @ 0xc49c20] silence_end: 54.7004 | silence_duration: 0.630612
[silencedetect @ 0xc49c20] silence_start: 62.4551
[silencedetect @ 0xc49c20] silence_end: 63.1641 | silence_duration: 0.70898
[silencedetect @ 0xc49c20] silence_start: 70.5269
[silencedetect @ 0xc49c20] silence_end: 71.1053 | silence_duration: 0.578367
[silencedetect @ 0xc49c20] silence_start: 77.7629
[silencedetect @ 0xc49c20] silence_end: 78.4196 | silence_duration: 0.656735
[silencedetect @ 0xc49c20] silence_start: 91.9735
[silencedetect @ 0xc49c20] silence_end: 92.4735 | silence_duration: 0.5
[silencedetect @ 0xc49c20] silence_start: 103.154
[silencedetect @ 0xc49c20] silence_end: 103.784 | silence_duration: 0.630612
[silencedetect @ 0xc49c20] silence_start: 129.433
[silencedetect @ 0xc49c20] silence_end: 129.959 | silence_duration: 0.526122
[silencedetect @ 0xc49c20] silence_start: 165.978
[silencedetect @ 0xc49c20] silence_end: 166.478 | silence_duration: 0.5
[silencedetect @ 0xc49c20] silence_start: 181.6
[silencedetect @ 0xc49c20] silence_end: 182.309 | silence_duration: 0.70898
[silencedetect @ 0xc49c20] silence_start: 194.243
[silencedetect @ 0xc49c20] silence_end: 194.769 | silence_duration: 0.526122
[silencedetect @ 0xc49c20] silence_start: 201.139
[silencedetect @ 0xc49c20] silence_end: 201.665 | silence_duration: 0.526122
[silencedetect @ 0xc49c20] silence_start: 218.171
[silencedetect @ 0xc49c20] silence_end: 219.611 | silence_duration: 1.44041
[silencedetect @ 0xc49c20] silence_start: 223.892
[silencedetect @ 0xc49c20] silence_end: 224.418 | silence_duration: 0.526122
[silencedetect @ 0xc49c20] silence_start: 227.68
[silencedetect @ 0xc49c20] silence_end: 228.258 | silence_duration: 0.578367
[silencedetect @ 0xc49c20] silence_start: 230.605
[silencedetect @ 0xc49c20] silence_end: 231.158 | silence_duration: 0.552245
[silencedetect @ 0xc49c20] silence_start: 231.833
[silencedetect @ 0xc49c20] silence_end: 232.359 | silence_duration: 0.526122
[silencedetect @ 0xc49c20] silence_start: 238.416
[silencedetect @ 0xc49c20] silence_end: 238.942 | silence_duration: 0.526122
[silencedetect @ 0xc49c20] silence_start: 241.969
[silencedetect @ 0xc49c20] silence_end: 242.625 | silence_duration: 0.656735
[silencedetect @ 0xc49c20] silence_start: 245.469
[silencedetect @ 0xc49c20] silence_end: 246.021 | silence_duration: 0.552245
[silencedetect @ 0xc49c20] silence_start: 255.866
[silencedetect @ 0xc49c20] silence_end: 256.81 | silence_duration: 0.944082
[silencedetect @ 0xc49c20] silence_start: 259.053
[silencedetect @ 0xc49c20] silence_end: 259.631 | silence_duration: 0.578367
[silencedetect @ 0xc49c20] silence_start: 274.622
[silencedetect @ 0xc49c20] silence_end: 275.644 | silence_duration: 1.02245
[silencedetect @ 0xc49c20] silence_start: 279.611
[silencedetect @ 0xc49c20] silence_end: 280.189 | silence_duration: 0.578367
[silencedetect @ 0xc49c20] silence_start: 284.914
[silencedetect @ 0xc49c20] silence_end: 285.466 | silence_duration: 0.552245
[silencedetect @ 0xc49c20] silence_start: 300.457
[silencedetect @ 0xc49c20] silence_end: 301.322 | silence_duration: 0.865714
[silencedetect @ 0xc49c20] silence_start: 313.596
[silencedetect @ 0xc49c20] silence_end: 314.096 | silence_duration: 0.5
[silencedetect @ 0xc49c20] silence_start: 315.033
[silencedetect @ 0xc49c20] silence_end: 315.794 | silence_duration: 0.761224
[silencedetect @ 0xc49c20] silence_start: 323.079
[silencedetect @ 0xc49c20] silence_end: 323.657 | silence_duration: 0.578367
[silencedetect @ 0xc49c20] silence_start: 334.599
[silencedetect @ 0xc49c20] silence_end: 335.099 | silence_duration: 0.5
[silencedetect @ 0xc49c20] silence_start: 340.189
[silencedetect @ 0xc49c20] silence_end: 340.767 | silence_duration: 0.578367
[silencedetect @ 0xc49c20] silence_start: 346.171
[silencedetect @ 0xc49c20] silence_end: 346.776 | silence_duration: 0.60449
[silencedetect @ 0xc49c20] silence_start: 353.825
size=N/A time=00:05:54.35 bitrate=N/A    
video:0kB audio:30521kB subtitle:0kB other streams:0kB global headers:0kB muxing overhead: unknown
